<svg width="26" height="27" viewBox="0 0 26 27" fill="none" xmlns="http://www.w3.org/2000/svg">
<g filter="url(#filter0_d)">
<path d="M11.575 3.21668C8.6105 7.76249 7.12126 10.3575 4.51671 15C4.37118 15.252 4.29418 15.5378 4.29336 15.8288C4.29255 16.1198 4.36795 16.406 4.51206 16.6588C4.65618 16.9116 4.86398 17.1223 5.1148 17.2699C7.95753 17.9566 19.766 18.7361 21.488 16.6588C21.6321 16.406 21.7075 16.1198 21.7067 15.8288C21.7059 15.5378 21.6289 15.252 21.4834 15C18.7008 10.5383 17.1461 7.99502 14.425 3.21668C14.2765 2.97177 14.0673 2.76928 13.8177 2.62875C13.5681 2.48822 13.2865 2.4144 13 2.4144C12.7136 2.4144 12.432 2.48822 12.1824 2.62875C11.9328 2.76928 11.7236 2.97177 11.575 3.21668Z" fill="#FF0000"/>
<path d="M13 7.5V10.8333" stroke="white" stroke-width="2" stroke-linecap="round" stroke-linejoin="round"/>
<path d="M13 14.1667H13.0075" stroke="white" stroke-width="2" stroke-linecap="round" stroke-linejoin="round"/>
</g>
<defs>
<filter id="filter0_d" x="-1" y="0" width="28" height="28" filterUnits="userSpaceOnUse" color-interpolation-filters="sRGB">
<feFlood flood-opacity="0" result="BackgroundImageFix"/>
<feColorMatrix in="SourceAlpha" type="matrix" values="0 0 0 0 0 0 0 0 0 0 0 0 0 0 0 0 0 0 127 0"/>
<feOffset dy="4"/>
<feGaussianBlur stdDeviation="2"/>
<feColorMatrix type="matrix" values="0 0 0 0 0 0 0 0 0 0 0 0 0 0 0 0 0 0 0.25 0"/>
<feBlend mode="normal" in2="BackgroundImageFix" result="effect1_dropShadow"/>
<feBlend mode="normal" in="SourceGraphic" in2="effect1_dropShadow" result="shape"/>
</filter>
</defs>
</svg>
