<svg width="203" height="66" viewBox="0 0 203 66" fill="none" xmlns="http://www.w3.org/2000/svg">
<g filter="url(#filter0_d)">
<rect x="6" y="3" width="191" height="54" rx="27" fill="#E50046"/>
</g>
<path d="M69.48 37C69.36 37 69.26 36.96 69.18 36.88C69.1 36.7867 69.06 36.68 69.06 36.56C69.06 36.4667 69.0867 36.38 69.14 36.3L71.96 32.44C71.7867 32.48 71.5933 32.5 71.38 32.5C70.5533 32.4467 69.7733 32.22 69.04 31.82C68.3067 31.42 67.7133 30.8733 67.26 30.18C66.8067 29.4867 66.58 28.6933 66.58 27.8C66.58 26.92 66.8 26.1 67.24 25.34C67.68 24.58 68.3267 23.9667 69.18 23.5C70.0467 23.0333 71.0867 22.8 72.3 22.8C73.5267 22.8 74.58 23.0133 75.46 23.44C76.3533 23.8667 77.0267 24.4533 77.48 25.2C77.9333 25.9333 78.16 26.7533 78.16 27.66C78.16 28.3933 78.0067 29.06 77.7 29.66C77.4067 30.26 76.9667 30.9667 76.38 31.78C76.3533 31.8067 76.2467 31.9533 76.06 32.22L72.86 36.6C72.6733 36.8667 72.4333 37 72.14 37H69.48ZM72.34 29.86C72.9533 29.86 73.46 29.6733 73.86 29.3C74.26 28.9267 74.46 28.42 74.46 27.78C74.46 27.14 74.26 26.6333 73.86 26.26C73.46 25.8733 72.9533 25.68 72.34 25.68C71.7267 25.68 71.22 25.8733 70.82 26.26C70.4333 26.6333 70.24 27.14 70.24 27.78C70.24 28.42 70.44 28.9267 70.84 29.3C71.24 29.6733 71.74 29.86 72.34 29.86ZM85.1758 37.2C83.8824 37.2 82.7958 37 81.9158 36.6C81.0491 36.2 80.4024 35.7067 79.9758 35.12C79.5624 34.52 79.3424 33.92 79.3158 33.32C79.3158 33.2 79.3558 33.1 79.4358 33.02C79.5291 32.94 79.6358 32.9 79.7558 32.9H82.3758C82.5224 32.9 82.6424 32.9267 82.7358 32.98C82.8291 33.0333 82.9158 33.1333 82.9958 33.28C83.2624 33.9733 83.9891 34.32 85.1758 34.32C85.8558 34.32 86.3824 34.1667 86.7558 33.86C87.1424 33.54 87.3358 33.1067 87.3358 32.56C87.3358 31.4933 86.6424 30.96 85.2558 30.96H83.0358C82.9024 30.96 82.7824 30.9133 82.6758 30.82C82.5824 30.7133 82.5358 30.5933 82.5358 30.46V29.34C82.5358 29.0467 82.6424 28.82 82.8558 28.66L86.1358 25.88H80.5758C80.4424 25.88 80.3224 25.8333 80.2158 25.74C80.1224 25.6333 80.0758 25.5133 80.0758 25.38V23.5C80.0758 23.3533 80.1224 23.2333 80.2158 23.14C80.3224 23.0467 80.4424 23 80.5758 23H89.7758C89.9224 23 90.0424 23.0467 90.1358 23.14C90.2424 23.2333 90.2958 23.3533 90.2958 23.5V25.2C90.2958 25.4533 90.1891 25.6733 89.9758 25.86L86.9358 28.68L87.0758 28.72C88.3024 28.88 89.2691 29.2933 89.9758 29.96C90.6958 30.6133 91.0558 31.5533 91.0558 32.78C91.0558 33.6733 90.8024 34.4533 90.2958 35.12C89.7891 35.7867 89.0891 36.3 88.1958 36.66C87.3024 37.02 86.2958 37.2 85.1758 37.2ZM93.4994 32.44C93.3527 32.44 93.2327 32.3933 93.1394 32.3C93.046 32.2067 92.9994 32.0867 92.9994 31.94V30.06C92.9994 29.9133 93.046 29.7933 93.1394 29.7C93.2327 29.6067 93.3527 29.56 93.4994 29.56H99.7594C99.906 29.56 100.026 29.6067 100.119 29.7C100.226 29.7933 100.279 29.9133 100.279 30.06V31.94C100.279 32.0867 100.226 32.2067 100.119 32.3C100.026 32.3933 99.906 32.44 99.7594 32.44H93.4994ZM103.234 37C103.114 37 103.014 36.96 102.934 36.88C102.854 36.7867 102.814 36.68 102.814 36.56C102.814 36.4933 102.827 36.4333 102.854 36.38L107.474 26.02H101.494C101.347 26.02 101.221 25.9733 101.114 25.88C101.021 25.7733 100.974 25.6467 100.974 25.5V23.5C100.974 23.3533 101.021 23.2333 101.114 23.14C101.221 23.0467 101.347 23 101.494 23H110.834C110.994 23 111.121 23.0467 111.214 23.14C111.307 23.2333 111.354 23.3533 111.354 23.5V25.28C111.354 25.56 111.281 25.86 111.134 26.18L106.514 36.52C106.367 36.84 106.134 37 105.814 37H103.234ZM114.699 37C114.579 37 114.479 36.96 114.399 36.88C114.319 36.7867 114.279 36.68 114.279 36.56C114.279 36.4933 114.292 36.4333 114.319 36.38L118.939 26.02H112.959C112.812 26.02 112.686 25.9733 112.579 25.88C112.486 25.7733 112.439 25.6467 112.439 25.5V23.5C112.439 23.3533 112.486 23.2333 112.579 23.14C112.686 23.0467 112.812 23 112.959 23H122.299C122.459 23 122.586 23.0467 122.679 23.14C122.772 23.2333 122.819 23.3533 122.819 23.5V25.28C122.819 25.56 122.746 25.86 122.599 26.18L117.979 36.52C117.832 36.84 117.599 37 117.279 37H114.699ZM124.437 32.44C124.29 32.44 124.17 32.3933 124.077 32.3C123.984 32.2067 123.937 32.0867 123.937 31.94V30.06C123.937 29.9133 123.984 29.7933 124.077 29.7C124.17 29.6067 124.29 29.56 124.437 29.56H130.697C130.844 29.56 130.964 29.6067 131.057 29.7C131.164 29.7933 131.217 29.9133 131.217 30.06V31.94C131.217 32.0867 131.164 32.2067 131.057 32.3C130.964 32.3933 130.844 32.44 130.697 32.44H124.437ZM133.141 37C132.994 37 132.867 36.9533 132.761 36.86C132.667 36.7667 132.621 36.6467 132.621 36.5V35.08C132.621 34.68 132.787 34.3533 133.121 34.1L135.201 32.06C136.414 31.1267 137.334 30.4 137.961 29.88C138.587 29.36 139.061 28.8867 139.381 28.46C139.701 28.0333 139.861 27.6267 139.861 27.24C139.861 26.1867 139.341 25.66 138.301 25.66C137.754 25.66 137.334 25.8267 137.041 26.16C136.747 26.48 136.554 26.8867 136.461 27.38C136.381 27.6867 136.154 27.84 135.781 27.84H133.281C133.161 27.84 133.061 27.8 132.981 27.72C132.901 27.64 132.861 27.54 132.861 27.42C132.887 26.5667 133.121 25.7867 133.561 25.08C134.014 24.36 134.647 23.7933 135.461 23.38C136.287 22.9533 137.234 22.74 138.301 22.74C139.421 22.74 140.381 22.92 141.181 23.28C141.981 23.64 142.587 24.1467 143.001 24.8C143.414 25.4533 143.621 26.2133 143.621 27.08C143.621 28.0133 143.327 28.8667 142.741 29.64C142.167 30.4 141.287 31.2267 140.101 32.12L138.261 33.98H143.401C143.547 33.98 143.667 34.0267 143.761 34.12C143.867 34.2133 143.921 34.3333 143.921 34.48V36.5C143.921 36.6467 143.867 36.7667 143.761 36.86C143.667 36.9533 143.547 37 143.401 37H133.141ZM147.629 37C147.509 37 147.409 36.96 147.329 36.88C147.249 36.7867 147.209 36.68 147.209 36.56C147.209 36.4933 147.222 36.4333 147.249 36.38L151.869 26.02H145.889C145.742 26.02 145.615 25.9733 145.509 25.88C145.415 25.7733 145.369 25.6467 145.369 25.5V23.5C145.369 23.3533 145.415 23.2333 145.509 23.14C145.615 23.0467 145.742 23 145.889 23H155.229C155.389 23 155.515 23.0467 155.609 23.14C155.702 23.2333 155.749 23.3533 155.749 23.5V25.28C155.749 25.56 155.675 25.86 155.529 26.18L150.909 36.52C150.762 36.84 150.529 37 150.209 37H147.629Z" fill="white"/>
<path d="M39.5154 41.0618C40.4887 41.5285 41.7707 41.7052 42.8498 41.6878C44.0407 41.679 44.8475 41.5943 45.9674 41.1888C47.5538 40.6238 48.8464 39.8795 48.7469 38.6134C48.6473 37.3472 48.246 35.2228 46.875 34.1741C46.6808 34.0141 46.4541 33.8983 46.2107 33.8347C45.9673 33.7712 45.7129 33.7615 45.4654 33.8063C44.8316 33.9282 44.1337 34.165 43.5 34.5491C42.75 35.0037 41.2895 34.735 40.5 34.1741C39.375 33.375 38.6412 29.3118 39.2322 26.625C39.4797 25.5 40.9695 25.7848 42.3751 25.6202L42.7407 25.5836C43.1544 25.5407 43.5476 25.3817 43.875 25.125C44.2024 24.8683 44.4506 24.5242 44.5911 24.1325C45.2817 22.3948 44.6801 20.2355 43.5 18.8128C42.5616 17.6849 40.8166 17.9233 39.2322 18.3806C38.0289 18.7235 36.9136 19.3217 35.9621 20.1346C34.8896 21.0796 34.2356 22.2401 34.067 23.49C33.545 27.4532 33.1611 34.2779 37.2417 39.3731C37.9043 40.2255 38.5422 40.5952 39.5154 41.0618Z" fill="white"/>
<defs>
<filter id="filter0_d" x="0" y="0" width="203" height="66" filterUnits="userSpaceOnUse" color-interpolation-filters="sRGB">
<feFlood flood-opacity="0" result="BackgroundImageFix"/>
<feColorMatrix in="SourceAlpha" type="matrix" values="0 0 0 0 0 0 0 0 0 0 0 0 0 0 0 0 0 0 127 0"/>
<feOffset dy="3"/>
<feGaussianBlur stdDeviation="3"/>
<feColorMatrix type="matrix" values="0 0 0 0 0.898039 0 0 0 0 0 0 0 0 0 0.27451 0 0 0 0.24 0"/>
<feBlend mode="normal" in2="BackgroundImageFix" result="effect1_dropShadow"/>
<feBlend mode="normal" in="SourceGraphic" in2="effect1_dropShadow" result="shape"/>
</filter>
</defs>
</svg>
