<svg width="20" height="22" viewBox="0 0 20 22" fill="none" xmlns="http://www.w3.org/2000/svg">
<path fill-rule="evenodd" clip-rule="evenodd" d="M15.8569 7.07092C16.4499 7.07653 16.9698 7.08198 17.148 7.08714C17.9787 7.1112 18.9533 7.59949 19.0037 9.7662C19.0509 11.8015 19.2003 13.0174 19.3557 14.2829C19.4949 15.4159 19.639 16.5886 19.719 18.4247C19.719 19.5568 18.6221 20.4879 17.541 20.6027C11.3788 21.2567 8.40745 21.1151 2.38603 20.3464C1.10487 20.0902 0.336182 19.0443 0.336182 17.9122C0.336182 15.4434 0.645826 13.7817 1.00481 11.8552C1.18345 10.8966 1.3743 9.87239 1.5453 8.65055C1.88295 7.93098 2.57022 7.62563 3.401 7.47148C3.6679 7.42195 3.93922 7.37699 4.21405 7.33624C4.20071 7.15881 4.19392 6.97932 4.19392 6.79806C4.19392 3.26549 6.77255 0.401764 10.2138 0.401764C13.6551 0.401764 15.8613 3.26549 15.8613 6.79806C15.8613 6.88948 15.8598 6.98044 15.8569 7.07092ZM14.3567 7.05644C14.3597 6.9712 14.3613 6.88507 14.3613 6.79806C14.3613 3.85276 12.6045 1.90176 10.2138 1.90176C7.70373 1.90176 5.69392 3.98728 5.69392 6.79806C5.69392 6.91909 5.69764 7.03878 5.70498 7.15701C8.42384 6.89916 11.3134 6.96707 13.5685 7.0441C13.6887 7.0482 13.9837 7.05233 14.3567 7.05644ZM10.0276 11.3632C9.65995 11.3632 9.30037 11.6612 9.30037 12.0289L9.34445 13.4595C8.58572 13.7632 8.0305 14.7103 8.0305 15.539C8.0305 16.5417 8.84335 17.3545 9.84605 17.3545C10.8488 17.3545 12.0247 16.5417 12.0247 15.539C12.0247 14.8149 11.4116 14.0006 10.6933 13.6039V12.0289C10.6933 11.6612 10.3953 11.3632 10.0276 11.3632Z" fill="#8B929E"/>
</svg>
