<svg width="24" height="24" viewBox="0 0 24 24" fill="none" xmlns="http://www.w3.org/2000/svg">
<path d="M21.5955 23.134C21.825 23.4427 22.3802 23.0637 22.8127 22.6541C23.1381 22.346 23.2129 21.6605 23.068 21.3603C22.674 20.5311 20.3741 18.55 19.2734 17.6631C18.7994 17.2678 17.6997 15.8591 16.6846 15.1685C16.3641 14.9504 15.695 15.3432 15.4674 15.6484C15.0131 16.2574 14.9649 16.7057 15.1097 17.0059C15.5792 17.9788 16.5296 18.3138 17.6762 19.49C18.8418 20.5873 21.2575 22.8522 21.5955 23.134Z" fill="#E50046"/>
<path d="M9.73064 19.6842C3.63028 19.6842 0 15.3669 0 10.0696C0 4.77229 4.91397 0.454956 10.292 0.454956C16.34 0.454956 19.2367 5.18461 19.2367 10.4911C19.2292 16.4356 15.1087 19.6842 9.73064 19.6842ZM9.73064 2.42965C5.47161 2.42965 2.03221 5.24378 2.03221 9.45572C2.03221 13.6677 5.90762 17.8667 10.1667 17.8667C14.4257 17.8667 17.4646 14.2704 17.4646 10.0622C17.4622 8.03706 16.6462 6.09572 15.1961 4.66461C13.746 3.23349 11.7802 2.42965 9.73064 2.42965Z" fill="#E50046"/>
</svg>
